# xmcd
#
# Track frame offsets:
#	150
#	22477
#	51205
#	63977
#	82967
#	103107
#	127300
#	145827
#	166240
#	181062
#
# Disc length: 2673 seconds
# Revision: 1
# Processed by: cddbd v1.5.2PL0 Copyright (c) Steve Scherf et al.
# Submitted via: dBpowerAMP V12.0
#
DISCID=8c0a6f0a
DTITLE=Rob Quist and Great Northern - Songs From Western Harmony
DYEAR=1989
DGENRE=Country
TTITLE0=Back In Harmony
TTITLE1=Kootenai
TTITLE2=The Sound Of The Great Northern
TTITLE3=Horse
TTITLE4=The Gift
TTITLE5=John Come Along
TTITLE6=A Lady Called Montana
TTITLE7=Party Goin' Somewhere To Happen
TTITLE8=Spiritual Brothers
TTITLE9=In Without Knocking
EXTD=
EXTT0=
EXTT1=
EXTT2=
EXTT3=
EXTT4=
EXTT5=
EXTT6=
EXTT7=
EXTT8=
EXTT9=
PLAYORDER=
